<mxfile host="app.diagrams.net" modified="2024-02-02T09:50:05.796Z" agent="Mozilla/5.0 (X11; Linux x86_64) AppleWebKit/537.36 (KHTML, like Gecko) Chrome/120.0.0.0 Safari/537.36" etag="vzXfBPB7fLRYuk5x_lZ0" version="23.0.2" type="device">
  <diagram name="Сторінка-1" id="K_RGDnJAdk7cyxfcsl8m">
    <mxGraphModel dx="2222" dy="1826" grid="1" gridSize="10" guides="1" tooltips="1" connect="1" arrows="1" fold="1" page="1" pageScale="1" pageWidth="827" pageHeight="1169" math="0" shadow="0">
      <root>
        <mxCell id="0" />
        <mxCell id="1" parent="0" />
        <mxCell id="_X7-g7dKhT17gmtEmU-m-2" value="Map" style="swimlane;fontStyle=0;childLayout=stackLayout;horizontal=1;startSize=26;fillColor=none;horizontalStack=0;resizeParent=1;resizeParentMax=0;resizeLast=0;collapsible=1;marginBottom=0;whiteSpace=wrap;html=1;" vertex="1" parent="1">
          <mxGeometry x="750" y="-70" width="140" height="104" as="geometry" />
        </mxCell>
        <mxCell id="_X7-g7dKhT17gmtEmU-m-3" value="render(self, surface)" style="text;strokeColor=none;fillColor=none;align=left;verticalAlign=top;spacingLeft=4;spacingRight=4;overflow=hidden;rotatable=0;points=[[0,0.5],[1,0.5]];portConstraint=eastwest;whiteSpace=wrap;html=1;" vertex="1" parent="_X7-g7dKhT17gmtEmU-m-2">
          <mxGeometry y="26" width="140" height="26" as="geometry" />
        </mxCell>
        <mxCell id="_X7-g7dKhT17gmtEmU-m-4" value="at(self, x, y)" style="text;strokeColor=none;fillColor=none;align=left;verticalAlign=top;spacingLeft=4;spacingRight=4;overflow=hidden;rotatable=0;points=[[0,0.5],[1,0.5]];portConstraint=eastwest;whiteSpace=wrap;html=1;" vertex="1" parent="_X7-g7dKhT17gmtEmU-m-2">
          <mxGeometry y="52" width="140" height="26" as="geometry" />
        </mxCell>
        <mxCell id="_X7-g7dKhT17gmtEmU-m-5" value="+ field: type" style="text;strokeColor=none;fillColor=none;align=left;verticalAlign=top;spacingLeft=4;spacingRight=4;overflow=hidden;rotatable=0;points=[[0,0.5],[1,0.5]];portConstraint=eastwest;whiteSpace=wrap;html=1;" vertex="1" parent="_X7-g7dKhT17gmtEmU-m-2">
          <mxGeometry y="78" width="140" height="26" as="geometry" />
        </mxCell>
        <mxCell id="_X7-g7dKhT17gmtEmU-m-52" value="" style="edgeStyle=orthogonalEdgeStyle;rounded=0;orthogonalLoop=1;jettySize=auto;html=1;entryX=0.5;entryY=0;entryDx=0;entryDy=0;" edge="1" parent="1" source="_X7-g7dKhT17gmtEmU-m-6" target="_X7-g7dKhT17gmtEmU-m-2">
          <mxGeometry relative="1" as="geometry" />
        </mxCell>
        <mxCell id="_X7-g7dKhT17gmtEmU-m-6" value="MapFactory" style="swimlane;fontStyle=0;childLayout=stackLayout;horizontal=1;startSize=26;fillColor=none;horizontalStack=0;resizeParent=1;resizeParentMax=0;resizeLast=0;collapsible=1;marginBottom=0;whiteSpace=wrap;html=1;" vertex="1" parent="1">
          <mxGeometry x="750" y="-213" width="140" height="78" as="geometry" />
        </mxCell>
        <mxCell id="_X7-g7dKhT17gmtEmU-m-7" value="parse(self, file)" style="text;strokeColor=none;fillColor=none;align=left;verticalAlign=top;spacingLeft=4;spacingRight=4;overflow=hidden;rotatable=0;points=[[0,0.5],[1,0.5]];portConstraint=eastwest;whiteSpace=wrap;html=1;" vertex="1" parent="_X7-g7dKhT17gmtEmU-m-6">
          <mxGeometry y="26" width="140" height="26" as="geometry" />
        </mxCell>
        <mxCell id="_X7-g7dKhT17gmtEmU-m-8" value="loadAssets(self, file)" style="text;strokeColor=none;fillColor=none;align=left;verticalAlign=top;spacingLeft=4;spacingRight=4;overflow=hidden;rotatable=0;points=[[0,0.5],[1,0.5]];portConstraint=eastwest;whiteSpace=wrap;html=1;" vertex="1" parent="_X7-g7dKhT17gmtEmU-m-6">
          <mxGeometry y="52" width="140" height="26" as="geometry" />
        </mxCell>
        <mxCell id="_X7-g7dKhT17gmtEmU-m-18" value="&lt;i&gt;MapObject&lt;/i&gt;" style="swimlane;fontStyle=0;childLayout=stackLayout;horizontal=1;startSize=26;fillColor=none;horizontalStack=0;resizeParent=1;resizeParentMax=0;resizeLast=0;collapsible=1;marginBottom=0;whiteSpace=wrap;html=1;" vertex="1" parent="1">
          <mxGeometry x="750" y="110" width="140" height="158" as="geometry" />
        </mxCell>
        <mxCell id="_X7-g7dKhT17gmtEmU-m-19" value="update(self)" style="text;strokeColor=none;fillColor=none;align=left;verticalAlign=top;spacingLeft=4;spacingRight=4;overflow=hidden;rotatable=0;points=[[0,0.5],[1,0.5]];portConstraint=eastwest;whiteSpace=wrap;html=1;" vertex="1" parent="_X7-g7dKhT17gmtEmU-m-18">
          <mxGeometry y="26" width="140" height="26" as="geometry" />
        </mxCell>
        <mxCell id="_X7-g7dKhT17gmtEmU-m-20" value="getValue(self)" style="text;strokeColor=none;fillColor=none;align=left;verticalAlign=top;spacingLeft=4;spacingRight=4;overflow=hidden;rotatable=0;points=[[0,0.5],[1,0.5]];portConstraint=eastwest;whiteSpace=wrap;html=1;" vertex="1" parent="_X7-g7dKhT17gmtEmU-m-18">
          <mxGeometry y="52" width="140" height="28" as="geometry" />
        </mxCell>
        <mxCell id="_X7-g7dKhT17gmtEmU-m-21" value="isPassable(self)" style="text;strokeColor=none;fillColor=none;align=left;verticalAlign=top;spacingLeft=4;spacingRight=4;overflow=hidden;rotatable=0;points=[[0,0.5],[1,0.5]];portConstraint=eastwest;whiteSpace=wrap;html=1;" vertex="1" parent="_X7-g7dKhT17gmtEmU-m-18">
          <mxGeometry y="80" width="140" height="26" as="geometry" />
        </mxCell>
        <mxCell id="_X7-g7dKhT17gmtEmU-m-114" value="isCollactable(self)" style="text;strokeColor=none;fillColor=none;align=left;verticalAlign=top;spacingLeft=4;spacingRight=4;overflow=hidden;rotatable=0;points=[[0,0.5],[1,0.5]];portConstraint=eastwest;whiteSpace=wrap;html=1;" vertex="1" parent="_X7-g7dKhT17gmtEmU-m-18">
          <mxGeometry y="106" width="140" height="26" as="geometry" />
        </mxCell>
        <mxCell id="_X7-g7dKhT17gmtEmU-m-72" value="collect(self)" style="text;strokeColor=none;fillColor=none;align=left;verticalAlign=top;spacingLeft=4;spacingRight=4;overflow=hidden;rotatable=0;points=[[0,0.5],[1,0.5]];portConstraint=eastwest;whiteSpace=wrap;html=1;" vertex="1" parent="_X7-g7dKhT17gmtEmU-m-18">
          <mxGeometry y="132" width="140" height="26" as="geometry" />
        </mxCell>
        <mxCell id="_X7-g7dKhT17gmtEmU-m-22" value="«interface»&lt;br&gt;&lt;b&gt;pygame.sprite.Sprite&lt;/b&gt;" style="html=1;whiteSpace=wrap;" vertex="1" parent="1">
          <mxGeometry x="755" y="392.15999999999997" width="130" height="50" as="geometry" />
        </mxCell>
        <mxCell id="_X7-g7dKhT17gmtEmU-m-24" value="*" style="endArrow=open;html=1;endSize=12;startArrow=diamondThin;startSize=14;startFill=0;edgeStyle=orthogonalEdgeStyle;align=left;verticalAlign=bottom;rounded=0;exitX=0.5;exitY=0;exitDx=0;exitDy=0;entryX=0.489;entryY=1.008;entryDx=0;entryDy=0;entryPerimeter=0;" edge="1" parent="1" source="_X7-g7dKhT17gmtEmU-m-18" target="_X7-g7dKhT17gmtEmU-m-5">
          <mxGeometry x="-0.7412" relative="1" as="geometry">
            <mxPoint x="490" y="10" as="sourcePoint" />
            <mxPoint x="650" y="10" as="targetPoint" />
            <Array as="points">
              <mxPoint x="820" y="72" />
              <mxPoint x="819" y="72" />
            </Array>
            <mxPoint as="offset" />
          </mxGeometry>
        </mxCell>
        <mxCell id="_X7-g7dKhT17gmtEmU-m-26" value="Wall" style="swimlane;fontStyle=0;childLayout=stackLayout;horizontal=1;startSize=26;fillColor=none;horizontalStack=0;resizeParent=1;resizeParentMax=0;resizeLast=0;collapsible=1;marginBottom=0;whiteSpace=wrap;html=1;" vertex="1" parent="1">
          <mxGeometry x="990" y="100" width="140" height="106" as="geometry" />
        </mxCell>
        <mxCell id="_X7-g7dKhT17gmtEmU-m-27" value="getAsset(self)" style="text;strokeColor=none;fillColor=none;align=left;verticalAlign=top;spacingLeft=4;spacingRight=4;overflow=hidden;rotatable=0;points=[[0,0.5],[1,0.5]];portConstraint=eastwest;whiteSpace=wrap;html=1;" vertex="1" parent="_X7-g7dKhT17gmtEmU-m-26">
          <mxGeometry y="26" width="140" height="26" as="geometry" />
        </mxCell>
        <mxCell id="_X7-g7dKhT17gmtEmU-m-28" value="getCollatableValue(self)" style="text;strokeColor=none;fillColor=none;align=left;verticalAlign=top;spacingLeft=4;spacingRight=4;overflow=hidden;rotatable=0;points=[[0,0.5],[1,0.5]];portConstraint=eastwest;whiteSpace=wrap;html=1;" vertex="1" parent="_X7-g7dKhT17gmtEmU-m-26">
          <mxGeometry y="52" width="140" height="28" as="geometry" />
        </mxCell>
        <mxCell id="_X7-g7dKhT17gmtEmU-m-29" value="isPassable(self)" style="text;strokeColor=none;fillColor=none;align=left;verticalAlign=top;spacingLeft=4;spacingRight=4;overflow=hidden;rotatable=0;points=[[0,0.5],[1,0.5]];portConstraint=eastwest;whiteSpace=wrap;html=1;" vertex="1" parent="_X7-g7dKhT17gmtEmU-m-26">
          <mxGeometry y="80" width="140" height="26" as="geometry" />
        </mxCell>
        <mxCell id="_X7-g7dKhT17gmtEmU-m-30" value="Void" style="swimlane;fontStyle=0;childLayout=stackLayout;horizontal=1;startSize=26;fillColor=none;horizontalStack=0;resizeParent=1;resizeParentMax=0;resizeLast=0;collapsible=1;marginBottom=0;whiteSpace=wrap;html=1;" vertex="1" parent="1">
          <mxGeometry x="990" y="230" width="140" height="106" as="geometry" />
        </mxCell>
        <mxCell id="_X7-g7dKhT17gmtEmU-m-31" value="getAsset(self)" style="text;strokeColor=none;fillColor=none;align=left;verticalAlign=top;spacingLeft=4;spacingRight=4;overflow=hidden;rotatable=0;points=[[0,0.5],[1,0.5]];portConstraint=eastwest;whiteSpace=wrap;html=1;" vertex="1" parent="_X7-g7dKhT17gmtEmU-m-30">
          <mxGeometry y="26" width="140" height="26" as="geometry" />
        </mxCell>
        <mxCell id="_X7-g7dKhT17gmtEmU-m-32" value="getCollatableValue(self)" style="text;strokeColor=none;fillColor=none;align=left;verticalAlign=top;spacingLeft=4;spacingRight=4;overflow=hidden;rotatable=0;points=[[0,0.5],[1,0.5]];portConstraint=eastwest;whiteSpace=wrap;html=1;" vertex="1" parent="_X7-g7dKhT17gmtEmU-m-30">
          <mxGeometry y="52" width="140" height="28" as="geometry" />
        </mxCell>
        <mxCell id="_X7-g7dKhT17gmtEmU-m-33" value="isPassable(self)" style="text;strokeColor=none;fillColor=none;align=left;verticalAlign=top;spacingLeft=4;spacingRight=4;overflow=hidden;rotatable=0;points=[[0,0.5],[1,0.5]];portConstraint=eastwest;whiteSpace=wrap;html=1;" vertex="1" parent="_X7-g7dKhT17gmtEmU-m-30">
          <mxGeometry y="80" width="140" height="26" as="geometry" />
        </mxCell>
        <mxCell id="_X7-g7dKhT17gmtEmU-m-34" value="Fruit" style="swimlane;fontStyle=0;childLayout=stackLayout;horizontal=1;startSize=26;fillColor=none;horizontalStack=0;resizeParent=1;resizeParentMax=0;resizeLast=0;collapsible=1;marginBottom=0;whiteSpace=wrap;html=1;" vertex="1" parent="1">
          <mxGeometry x="990" y="360" width="140" height="106" as="geometry" />
        </mxCell>
        <mxCell id="_X7-g7dKhT17gmtEmU-m-35" value="getAsset(self)" style="text;strokeColor=none;fillColor=none;align=left;verticalAlign=top;spacingLeft=4;spacingRight=4;overflow=hidden;rotatable=0;points=[[0,0.5],[1,0.5]];portConstraint=eastwest;whiteSpace=wrap;html=1;" vertex="1" parent="_X7-g7dKhT17gmtEmU-m-34">
          <mxGeometry y="26" width="140" height="26" as="geometry" />
        </mxCell>
        <mxCell id="_X7-g7dKhT17gmtEmU-m-36" value="getCollatableValue(self)" style="text;strokeColor=none;fillColor=none;align=left;verticalAlign=top;spacingLeft=4;spacingRight=4;overflow=hidden;rotatable=0;points=[[0,0.5],[1,0.5]];portConstraint=eastwest;whiteSpace=wrap;html=1;" vertex="1" parent="_X7-g7dKhT17gmtEmU-m-34">
          <mxGeometry y="52" width="140" height="28" as="geometry" />
        </mxCell>
        <mxCell id="_X7-g7dKhT17gmtEmU-m-37" value="isPassable(self)" style="text;strokeColor=none;fillColor=none;align=left;verticalAlign=top;spacingLeft=4;spacingRight=4;overflow=hidden;rotatable=0;points=[[0,0.5],[1,0.5]];portConstraint=eastwest;whiteSpace=wrap;html=1;" vertex="1" parent="_X7-g7dKhT17gmtEmU-m-34">
          <mxGeometry y="80" width="140" height="26" as="geometry" />
        </mxCell>
        <mxCell id="_X7-g7dKhT17gmtEmU-m-38" value="ThinWall" style="swimlane;fontStyle=0;childLayout=stackLayout;horizontal=1;startSize=26;fillColor=none;horizontalStack=0;resizeParent=1;resizeParentMax=0;resizeLast=0;collapsible=1;marginBottom=0;whiteSpace=wrap;html=1;" vertex="1" parent="1">
          <mxGeometry x="990" y="-40" width="140" height="106" as="geometry" />
        </mxCell>
        <mxCell id="_X7-g7dKhT17gmtEmU-m-39" value="getAsset(self)" style="text;strokeColor=none;fillColor=none;align=left;verticalAlign=top;spacingLeft=4;spacingRight=4;overflow=hidden;rotatable=0;points=[[0,0.5],[1,0.5]];portConstraint=eastwest;whiteSpace=wrap;html=1;" vertex="1" parent="_X7-g7dKhT17gmtEmU-m-38">
          <mxGeometry y="26" width="140" height="26" as="geometry" />
        </mxCell>
        <mxCell id="_X7-g7dKhT17gmtEmU-m-40" value="getCollatableValue(self)" style="text;strokeColor=none;fillColor=none;align=left;verticalAlign=top;spacingLeft=4;spacingRight=4;overflow=hidden;rotatable=0;points=[[0,0.5],[1,0.5]];portConstraint=eastwest;whiteSpace=wrap;html=1;" vertex="1" parent="_X7-g7dKhT17gmtEmU-m-38">
          <mxGeometry y="52" width="140" height="28" as="geometry" />
        </mxCell>
        <mxCell id="_X7-g7dKhT17gmtEmU-m-41" value="isPassable(self)" style="text;strokeColor=none;fillColor=none;align=left;verticalAlign=top;spacingLeft=4;spacingRight=4;overflow=hidden;rotatable=0;points=[[0,0.5],[1,0.5]];portConstraint=eastwest;whiteSpace=wrap;html=1;" vertex="1" parent="_X7-g7dKhT17gmtEmU-m-38">
          <mxGeometry y="80" width="140" height="26" as="geometry" />
        </mxCell>
        <mxCell id="_X7-g7dKhT17gmtEmU-m-42" value="" style="endArrow=block;dashed=1;endFill=0;endSize=12;html=1;rounded=0;exitX=0;exitY=0.5;exitDx=0;exitDy=0;entryX=1.005;entryY=0.304;entryDx=0;entryDy=0;entryPerimeter=0;" edge="1" parent="1" source="_X7-g7dKhT17gmtEmU-m-40" target="_X7-g7dKhT17gmtEmU-m-20">
          <mxGeometry width="160" relative="1" as="geometry">
            <mxPoint x="956" y="10" as="sourcePoint" />
            <mxPoint x="930" y="65" as="targetPoint" />
            <Array as="points">
              <mxPoint x="950" y="26" />
              <mxPoint x="950" y="170" />
            </Array>
          </mxGeometry>
        </mxCell>
        <mxCell id="_X7-g7dKhT17gmtEmU-m-44" value="" style="endArrow=block;dashed=1;endFill=0;endSize=12;html=1;rounded=0;exitX=-0.004;exitY=0.618;exitDx=0;exitDy=0;entryX=1.002;entryY=0.284;entryDx=0;entryDy=0;entryPerimeter=0;exitPerimeter=0;" edge="1" parent="1" source="_X7-g7dKhT17gmtEmU-m-28" target="_X7-g7dKhT17gmtEmU-m-20">
          <mxGeometry width="160" relative="1" as="geometry">
            <mxPoint x="1000" y="36" as="sourcePoint" />
            <mxPoint x="900" y="173" as="targetPoint" />
            <Array as="points" />
          </mxGeometry>
        </mxCell>
        <mxCell id="_X7-g7dKhT17gmtEmU-m-45" value="" style="endArrow=block;dashed=1;endFill=0;endSize=12;html=1;rounded=0;exitX=0;exitY=0.5;exitDx=0;exitDy=0;" edge="1" parent="1" source="_X7-g7dKhT17gmtEmU-m-32">
          <mxGeometry width="160" relative="1" as="geometry">
            <mxPoint x="1000" y="176" as="sourcePoint" />
            <mxPoint x="890" y="170" as="targetPoint" />
            <Array as="points">
              <mxPoint x="950" y="296" />
              <mxPoint x="950" y="170" />
            </Array>
          </mxGeometry>
        </mxCell>
        <mxCell id="_X7-g7dKhT17gmtEmU-m-46" value="" style="endArrow=block;dashed=1;endFill=0;endSize=12;html=1;rounded=0;exitX=0;exitY=0.5;exitDx=0;exitDy=0;" edge="1" parent="1" source="_X7-g7dKhT17gmtEmU-m-36">
          <mxGeometry width="160" relative="1" as="geometry">
            <mxPoint x="1000" y="306" as="sourcePoint" />
            <mxPoint x="890" y="170" as="targetPoint" />
            <Array as="points">
              <mxPoint x="950" y="426" />
              <mxPoint x="950" y="170" />
            </Array>
          </mxGeometry>
        </mxCell>
        <mxCell id="_X7-g7dKhT17gmtEmU-m-47" value="Game" style="swimlane;fontStyle=0;childLayout=stackLayout;horizontal=1;startSize=26;fillColor=none;horizontalStack=0;resizeParent=1;resizeParentMax=0;resizeLast=0;collapsible=1;marginBottom=0;whiteSpace=wrap;html=1;" vertex="1" parent="1">
          <mxGeometry x="310" y="-200" width="140" height="52" as="geometry" />
        </mxCell>
        <mxCell id="_X7-g7dKhT17gmtEmU-m-48" value="update(self, window)" style="text;strokeColor=none;fillColor=none;align=left;verticalAlign=top;spacingLeft=4;spacingRight=4;overflow=hidden;rotatable=0;points=[[0,0.5],[1,0.5]];portConstraint=eastwest;whiteSpace=wrap;html=1;" vertex="1" parent="_X7-g7dKhT17gmtEmU-m-47">
          <mxGeometry y="26" width="140" height="26" as="geometry" />
        </mxCell>
        <mxCell id="_X7-g7dKhT17gmtEmU-m-54" value="&lt;i&gt;Entity&lt;/i&gt;" style="swimlane;fontStyle=0;childLayout=stackLayout;horizontal=1;startSize=26;fillColor=none;horizontalStack=0;resizeParent=1;resizeParentMax=0;resizeLast=0;collapsible=1;marginBottom=0;whiteSpace=wrap;html=1;" vertex="1" parent="1">
          <mxGeometry x="130" y="100" width="140" height="52" as="geometry" />
        </mxCell>
        <mxCell id="_X7-g7dKhT17gmtEmU-m-57" value="move(self, strategy)" style="text;strokeColor=none;fillColor=none;align=left;verticalAlign=top;spacingLeft=4;spacingRight=4;overflow=hidden;rotatable=0;points=[[0,0.5],[1,0.5]];portConstraint=eastwest;whiteSpace=wrap;html=1;" vertex="1" parent="_X7-g7dKhT17gmtEmU-m-54">
          <mxGeometry y="26" width="140" height="26" as="geometry" />
        </mxCell>
        <mxCell id="_X7-g7dKhT17gmtEmU-m-58" value="&lt;i&gt;AiStrategy&lt;/i&gt;" style="swimlane;fontStyle=0;childLayout=stackLayout;horizontal=1;startSize=26;fillColor=none;horizontalStack=0;resizeParent=1;resizeParentMax=0;resizeLast=0;collapsible=1;marginBottom=0;whiteSpace=wrap;html=1;" vertex="1" parent="1">
          <mxGeometry x="320" y="170" width="140" height="60" as="geometry" />
        </mxCell>
        <mxCell id="_X7-g7dKhT17gmtEmU-m-59" value="nextMove(self, map, entity)" style="text;strokeColor=none;fillColor=none;align=left;verticalAlign=top;spacingLeft=4;spacingRight=4;overflow=hidden;rotatable=0;points=[[0,0.5],[1,0.5]];portConstraint=eastwest;whiteSpace=wrap;html=1;" vertex="1" parent="_X7-g7dKhT17gmtEmU-m-58">
          <mxGeometry y="26" width="140" height="34" as="geometry" />
        </mxCell>
        <mxCell id="_X7-g7dKhT17gmtEmU-m-62" value="" style="html=1;startArrow=diamondThin;startFill=1;edgeStyle=elbowEdgeStyle;elbow=vertical;startSize=10;endArrow=none;endFill=0;rounded=0;exitX=0;exitY=0;exitDx=0;exitDy=0;entryX=1;entryY=0.5;entryDx=0;entryDy=0;" edge="1" parent="1" source="_X7-g7dKhT17gmtEmU-m-2" target="_X7-g7dKhT17gmtEmU-m-48">
          <mxGeometry width="160" relative="1" as="geometry">
            <mxPoint x="370" y="-60" as="sourcePoint" />
            <mxPoint x="660" as="targetPoint" />
            <Array as="points">
              <mxPoint x="590" y="-110" />
            </Array>
          </mxGeometry>
        </mxCell>
        <mxCell id="_X7-g7dKhT17gmtEmU-m-64" value="&lt;i&gt;GoCatchHimStrategy&lt;/i&gt;" style="swimlane;fontStyle=0;childLayout=stackLayout;horizontal=1;startSize=26;fillColor=none;horizontalStack=0;resizeParent=1;resizeParentMax=0;resizeLast=0;collapsible=1;marginBottom=0;whiteSpace=wrap;html=1;" vertex="1" parent="1">
          <mxGeometry x="180" y="325" width="140" height="60" as="geometry" />
        </mxCell>
        <mxCell id="_X7-g7dKhT17gmtEmU-m-65" value="nextMove(self, map, entity)" style="text;strokeColor=none;fillColor=none;align=left;verticalAlign=top;spacingLeft=4;spacingRight=4;overflow=hidden;rotatable=0;points=[[0,0.5],[1,0.5]];portConstraint=eastwest;whiteSpace=wrap;html=1;" vertex="1" parent="_X7-g7dKhT17gmtEmU-m-64">
          <mxGeometry y="26" width="140" height="34" as="geometry" />
        </mxCell>
        <mxCell id="_X7-g7dKhT17gmtEmU-m-66" value="&lt;i&gt;RunStrategy&lt;/i&gt;" style="swimlane;fontStyle=0;childLayout=stackLayout;horizontal=1;startSize=26;fillColor=none;horizontalStack=0;resizeParent=1;resizeParentMax=0;resizeLast=0;collapsible=1;marginBottom=0;whiteSpace=wrap;html=1;" vertex="1" parent="1">
          <mxGeometry x="420" y="325" width="140" height="60" as="geometry" />
        </mxCell>
        <mxCell id="_X7-g7dKhT17gmtEmU-m-67" value="nextMove(self, map, entity)" style="text;strokeColor=none;fillColor=none;align=left;verticalAlign=top;spacingLeft=4;spacingRight=4;overflow=hidden;rotatable=0;points=[[0,0.5],[1,0.5]];portConstraint=eastwest;whiteSpace=wrap;html=1;" vertex="1" parent="_X7-g7dKhT17gmtEmU-m-66">
          <mxGeometry y="26" width="140" height="34" as="geometry" />
        </mxCell>
        <mxCell id="_X7-g7dKhT17gmtEmU-m-80" style="edgeStyle=orthogonalEdgeStyle;rounded=0;orthogonalLoop=1;jettySize=auto;html=1;entryX=1;entryY=0;entryDx=0;entryDy=0;" edge="1" parent="1" source="_X7-g7dKhT17gmtEmU-m-68" target="_X7-g7dKhT17gmtEmU-m-54">
          <mxGeometry relative="1" as="geometry" />
        </mxCell>
        <mxCell id="_X7-g7dKhT17gmtEmU-m-68" value="EntityFactory" style="swimlane;fontStyle=0;childLayout=stackLayout;horizontal=1;startSize=26;fillColor=none;horizontalStack=0;resizeParent=1;resizeParentMax=0;resizeLast=0;collapsible=1;marginBottom=0;whiteSpace=wrap;html=1;" vertex="1" parent="1">
          <mxGeometry x="330" y="-60" width="140" height="52" as="geometry" />
        </mxCell>
        <mxCell id="_X7-g7dKhT17gmtEmU-m-69" value="createEntity(self, *args)" style="text;strokeColor=none;fillColor=none;align=left;verticalAlign=top;spacingLeft=4;spacingRight=4;overflow=hidden;rotatable=0;points=[[0,0.5],[1,0.5]];portConstraint=eastwest;whiteSpace=wrap;html=1;" vertex="1" parent="_X7-g7dKhT17gmtEmU-m-68">
          <mxGeometry y="26" width="140" height="26" as="geometry" />
        </mxCell>
        <mxCell id="_X7-g7dKhT17gmtEmU-m-73" value="ScoreSphere" style="swimlane;fontStyle=0;childLayout=stackLayout;horizontal=1;startSize=26;fillColor=none;horizontalStack=0;resizeParent=1;resizeParentMax=0;resizeLast=0;collapsible=1;marginBottom=0;whiteSpace=wrap;html=1;" vertex="1" parent="1">
          <mxGeometry x="990" y="480" width="140" height="106" as="geometry" />
        </mxCell>
        <mxCell id="_X7-g7dKhT17gmtEmU-m-74" value="getAsset(self)" style="text;strokeColor=none;fillColor=none;align=left;verticalAlign=top;spacingLeft=4;spacingRight=4;overflow=hidden;rotatable=0;points=[[0,0.5],[1,0.5]];portConstraint=eastwest;whiteSpace=wrap;html=1;" vertex="1" parent="_X7-g7dKhT17gmtEmU-m-73">
          <mxGeometry y="26" width="140" height="26" as="geometry" />
        </mxCell>
        <mxCell id="_X7-g7dKhT17gmtEmU-m-75" value="getCollatableValue(self)" style="text;strokeColor=none;fillColor=none;align=left;verticalAlign=top;spacingLeft=4;spacingRight=4;overflow=hidden;rotatable=0;points=[[0,0.5],[1,0.5]];portConstraint=eastwest;whiteSpace=wrap;html=1;" vertex="1" parent="_X7-g7dKhT17gmtEmU-m-73">
          <mxGeometry y="52" width="140" height="28" as="geometry" />
        </mxCell>
        <mxCell id="_X7-g7dKhT17gmtEmU-m-76" value="isPassable(self)" style="text;strokeColor=none;fillColor=none;align=left;verticalAlign=top;spacingLeft=4;spacingRight=4;overflow=hidden;rotatable=0;points=[[0,0.5],[1,0.5]];portConstraint=eastwest;whiteSpace=wrap;html=1;" vertex="1" parent="_X7-g7dKhT17gmtEmU-m-73">
          <mxGeometry y="80" width="140" height="26" as="geometry" />
        </mxCell>
        <mxCell id="_X7-g7dKhT17gmtEmU-m-77" value="" style="endArrow=block;dashed=1;endFill=0;endSize=12;html=1;rounded=0;exitX=0;exitY=0.5;exitDx=0;exitDy=0;" edge="1" parent="1" source="_X7-g7dKhT17gmtEmU-m-75">
          <mxGeometry width="160" relative="1" as="geometry">
            <mxPoint x="969" y="570" as="sourcePoint" />
            <mxPoint x="890" y="170" as="targetPoint" />
            <Array as="points">
              <mxPoint x="950" y="546" />
              <mxPoint x="950" y="170" />
            </Array>
          </mxGeometry>
        </mxCell>
        <mxCell id="_X7-g7dKhT17gmtEmU-m-78" value="" style="html=1;startArrow=diamondThin;startFill=1;edgeStyle=elbowEdgeStyle;elbow=vertical;startSize=10;endArrow=none;endFill=0;rounded=0;entryX=0.003;entryY=0.969;entryDx=0;entryDy=0;entryPerimeter=0;" edge="1" parent="1" source="_X7-g7dKhT17gmtEmU-m-54" target="_X7-g7dKhT17gmtEmU-m-48">
          <mxGeometry width="160" relative="1" as="geometry">
            <mxPoint x="760" y="-60" as="sourcePoint" />
            <mxPoint x="460" y="-151" as="targetPoint" />
            <Array as="points">
              <mxPoint x="290" y="-120" />
            </Array>
          </mxGeometry>
        </mxCell>
        <mxCell id="_X7-g7dKhT17gmtEmU-m-79" value="&lt;font style=&quot;font-size: 48px;&quot;&gt;&lt;b style=&quot;&quot;&gt;NeoPacman&lt;/b&gt;&lt;/font&gt;" style="text;html=1;strokeColor=none;fillColor=none;align=center;verticalAlign=middle;whiteSpace=wrap;rounded=0;" vertex="1" parent="1">
          <mxGeometry x="490" y="100" width="170" height="80" as="geometry" />
        </mxCell>
        <mxCell id="_X7-g7dKhT17gmtEmU-m-82" value="" style="endArrow=diamondThin;endFill=1;endSize=24;html=1;rounded=0;entryX=-0.001;entryY=0.382;entryDx=0;entryDy=0;exitX=0.984;exitY=1.026;exitDx=0;exitDy=0;exitPerimeter=0;entryPerimeter=0;" edge="1" parent="1" target="_X7-g7dKhT17gmtEmU-m-59">
          <mxGeometry width="160" relative="1" as="geometry">
            <mxPoint x="267.76" y="151.99600000000015" as="sourcePoint" />
            <mxPoint x="300" y="212.32" as="targetPoint" />
            <Array as="points">
              <mxPoint x="268" y="210" />
            </Array>
          </mxGeometry>
        </mxCell>
        <mxCell id="_X7-g7dKhT17gmtEmU-m-84" value="" style="endArrow=block;dashed=1;endFill=0;endSize=12;html=1;rounded=0;entryX=0.535;entryY=0.994;entryDx=0;entryDy=0;entryPerimeter=0;exitX=0.5;exitY=0;exitDx=0;exitDy=0;" edge="1" parent="1" source="_X7-g7dKhT17gmtEmU-m-22">
          <mxGeometry width="160" relative="1" as="geometry">
            <mxPoint x="555" y="332.15999999999997" as="sourcePoint" />
            <mxPoint x="819.9000000000001" y="350.004" as="targetPoint" />
          </mxGeometry>
        </mxCell>
        <mxCell id="_X7-g7dKhT17gmtEmU-m-85" value="" style="endArrow=block;dashed=1;endFill=0;endSize=12;html=1;rounded=0;entryX=0;entryY=0;entryDx=0;entryDy=0;exitX=1;exitY=0;exitDx=0;exitDy=0;" edge="1" parent="1" source="_X7-g7dKhT17gmtEmU-m-54" target="_X7-g7dKhT17gmtEmU-m-18">
          <mxGeometry width="160" relative="1" as="geometry">
            <mxPoint x="570" y="170" as="sourcePoint" />
            <mxPoint x="600" y="82" as="targetPoint" />
            <Array as="points">
              <mxPoint x="510" y="100" />
              <mxPoint x="510" y="110" />
            </Array>
          </mxGeometry>
        </mxCell>
        <mxCell id="_X7-g7dKhT17gmtEmU-m-86" value="*" style="text;html=1;align=center;verticalAlign=middle;resizable=0;points=[];autosize=1;strokeColor=none;fillColor=none;" vertex="1" parent="1">
          <mxGeometry x="200" y="66" width="30" height="30" as="geometry" />
        </mxCell>
        <mxCell id="_X7-g7dKhT17gmtEmU-m-87" value="&lt;i&gt;CollactablesSpawnStrategy&lt;/i&gt;" style="swimlane;fontStyle=0;childLayout=stackLayout;horizontal=1;startSize=26;fillColor=none;horizontalStack=0;resizeParent=1;resizeParentMax=0;resizeLast=0;collapsible=1;marginBottom=0;whiteSpace=wrap;html=1;" vertex="1" parent="1">
          <mxGeometry x="530" y="-60" width="160" height="60" as="geometry" />
        </mxCell>
        <mxCell id="_X7-g7dKhT17gmtEmU-m-88" value="SpawnCollactable(game)" style="text;strokeColor=none;fillColor=none;align=left;verticalAlign=top;spacingLeft=4;spacingRight=4;overflow=hidden;rotatable=0;points=[[0,0.5],[1,0.5]];portConstraint=eastwest;whiteSpace=wrap;html=1;" vertex="1" parent="_X7-g7dKhT17gmtEmU-m-87">
          <mxGeometry y="26" width="160" height="34" as="geometry" />
        </mxCell>
        <mxCell id="_X7-g7dKhT17gmtEmU-m-89" value="" style="html=1;startArrow=diamondThin;startFill=1;edgeStyle=elbowEdgeStyle;elbow=vertical;startSize=10;endArrow=none;endFill=0;rounded=0;exitX=0;exitY=0;exitDx=0;exitDy=0;" edge="1" parent="1" source="_X7-g7dKhT17gmtEmU-m-87">
          <mxGeometry width="160" relative="1" as="geometry">
            <mxPoint x="760" y="-60" as="sourcePoint" />
            <mxPoint x="450" y="-150" as="targetPoint" />
            <Array as="points">
              <mxPoint x="490" y="-110" />
            </Array>
          </mxGeometry>
        </mxCell>
        <mxCell id="_X7-g7dKhT17gmtEmU-m-90" value="" style="endArrow=block;dashed=1;endFill=0;endSize=12;html=1;rounded=0;entryX=0.464;entryY=0.966;entryDx=0;entryDy=0;entryPerimeter=0;exitX=0.5;exitY=0;exitDx=0;exitDy=0;" edge="1" parent="1" source="_X7-g7dKhT17gmtEmU-m-64" target="_X7-g7dKhT17gmtEmU-m-59">
          <mxGeometry width="160" relative="1" as="geometry">
            <mxPoint x="379.76" y="310" as="sourcePoint" />
            <mxPoint x="379.76" y="242" as="targetPoint" />
          </mxGeometry>
        </mxCell>
        <mxCell id="_X7-g7dKhT17gmtEmU-m-91" value="" style="endArrow=block;dashed=1;endFill=0;endSize=12;html=1;rounded=0;entryX=0.508;entryY=1.092;entryDx=0;entryDy=0;entryPerimeter=0;exitX=0.477;exitY=0.001;exitDx=0;exitDy=0;exitPerimeter=0;" edge="1" parent="1" source="_X7-g7dKhT17gmtEmU-m-66" target="_X7-g7dKhT17gmtEmU-m-59">
          <mxGeometry width="160" relative="1" as="geometry">
            <mxPoint x="260" y="335" as="sourcePoint" />
            <mxPoint x="395" y="239" as="targetPoint" />
          </mxGeometry>
        </mxCell>
        <mxCell id="_X7-g7dKhT17gmtEmU-m-92" value="1" style="text;html=1;align=center;verticalAlign=middle;resizable=0;points=[];autosize=1;strokeColor=none;fillColor=none;" vertex="1" parent="1">
          <mxGeometry x="750" y="-100" width="30" height="30" as="geometry" />
        </mxCell>
        <mxCell id="_X7-g7dKhT17gmtEmU-m-93" style="edgeStyle=orthogonalEdgeStyle;rounded=0;orthogonalLoop=1;jettySize=auto;html=1;entryX=0;entryY=0;entryDx=0;entryDy=0;" edge="1" parent="1" source="_X7-g7dKhT17gmtEmU-m-88" target="_X7-g7dKhT17gmtEmU-m-18">
          <mxGeometry relative="1" as="geometry">
            <Array as="points">
              <mxPoint x="610" y="50" />
              <mxPoint x="750" y="50" />
            </Array>
          </mxGeometry>
        </mxCell>
        <mxCell id="_X7-g7dKhT17gmtEmU-m-115" value="Colored Ghost" style="swimlane;fontStyle=0;childLayout=stackLayout;horizontal=1;startSize=26;fillColor=none;horizontalStack=0;resizeParent=1;resizeParentMax=0;resizeLast=0;collapsible=1;marginBottom=0;whiteSpace=wrap;html=1;" vertex="1" parent="1">
          <mxGeometry x="-50" y="38" width="140" height="52" as="geometry" />
        </mxCell>
        <mxCell id="_X7-g7dKhT17gmtEmU-m-116" value="move(self, strategy)" style="text;strokeColor=none;fillColor=none;align=left;verticalAlign=top;spacingLeft=4;spacingRight=4;overflow=hidden;rotatable=0;points=[[0,0.5],[1,0.5]];portConstraint=eastwest;whiteSpace=wrap;html=1;" vertex="1" parent="_X7-g7dKhT17gmtEmU-m-115">
          <mxGeometry y="26" width="140" height="26" as="geometry" />
        </mxCell>
        <mxCell id="_X7-g7dKhT17gmtEmU-m-119" value="&lt;i&gt;GoToShekavizaStrategy&lt;/i&gt;" style="swimlane;fontStyle=0;childLayout=stackLayout;horizontal=1;startSize=26;fillColor=none;horizontalStack=0;resizeParent=1;resizeParentMax=0;resizeLast=0;collapsible=1;marginBottom=0;whiteSpace=wrap;html=1;" vertex="1" parent="1">
          <mxGeometry x="180" y="406" width="140" height="60" as="geometry" />
        </mxCell>
        <mxCell id="_X7-g7dKhT17gmtEmU-m-120" value="nextMove(self, map, entity)" style="text;strokeColor=none;fillColor=none;align=left;verticalAlign=top;spacingLeft=4;spacingRight=4;overflow=hidden;rotatable=0;points=[[0,0.5],[1,0.5]];portConstraint=eastwest;whiteSpace=wrap;html=1;" vertex="1" parent="_X7-g7dKhT17gmtEmU-m-119">
          <mxGeometry y="26" width="140" height="34" as="geometry" />
        </mxCell>
        <mxCell id="_X7-g7dKhT17gmtEmU-m-131" value="Player" style="swimlane;fontStyle=0;childLayout=stackLayout;horizontal=1;startSize=26;fillColor=none;horizontalStack=0;resizeParent=1;resizeParentMax=0;resizeLast=0;collapsible=1;marginBottom=0;whiteSpace=wrap;html=1;" vertex="1" parent="1">
          <mxGeometry x="-60" y="174" width="140" height="52" as="geometry" />
        </mxCell>
        <mxCell id="_X7-g7dKhT17gmtEmU-m-132" value="move(self, strategy)" style="text;strokeColor=none;fillColor=none;align=left;verticalAlign=top;spacingLeft=4;spacingRight=4;overflow=hidden;rotatable=0;points=[[0,0.5],[1,0.5]];portConstraint=eastwest;whiteSpace=wrap;html=1;" vertex="1" parent="_X7-g7dKhT17gmtEmU-m-131">
          <mxGeometry y="26" width="140" height="26" as="geometry" />
        </mxCell>
        <mxCell id="_X7-g7dKhT17gmtEmU-m-135" value="" style="endArrow=block;dashed=1;endFill=0;endSize=12;html=1;rounded=0;entryX=-0.005;entryY=-0.128;entryDx=0;entryDy=0;entryPerimeter=0;" edge="1" parent="1" target="_X7-g7dKhT17gmtEmU-m-57">
          <mxGeometry width="160" relative="1" as="geometry">
            <mxPoint x="90" y="63.76" as="sourcePoint" />
            <mxPoint x="250" y="63.76" as="targetPoint" />
            <Array as="points">
              <mxPoint x="110" y="64" />
              <mxPoint x="110" y="123" />
            </Array>
          </mxGeometry>
        </mxCell>
        <mxCell id="_X7-g7dKhT17gmtEmU-m-136" value="" style="endArrow=block;dashed=1;endFill=0;endSize=12;html=1;rounded=0;entryX=-0.001;entryY=-0.022;entryDx=0;entryDy=0;entryPerimeter=0;exitX=1;exitY=0.5;exitDx=0;exitDy=0;" edge="1" parent="1" source="_X7-g7dKhT17gmtEmU-m-131" target="_X7-g7dKhT17gmtEmU-m-57">
          <mxGeometry width="160" relative="1" as="geometry">
            <mxPoint x="100" y="73.75999999999999" as="sourcePoint" />
            <mxPoint x="139" y="133" as="targetPoint" />
            <Array as="points">
              <mxPoint x="110" y="200" />
              <mxPoint x="110" y="120" />
              <mxPoint x="120" y="120" />
            </Array>
          </mxGeometry>
        </mxCell>
      </root>
    </mxGraphModel>
  </diagram>
</mxfile>
